<svg xmlns="http://www.w3.org/2000/svg" width="147" height="48"  ><path d="M12.352.602h122.297c6.48 0 11.734 5.102 11.734 11.398v24c0 6.297-5.254 11.398-11.734 11.398H12.352C5.871 47.398.617 42.297.617 36V12C.617 5.703 5.871.602 12.352.602zm0 0" fill="none" stroke="rgb(69.803922%,69.803922%,69.803922%)" stroke-width="1.218"/><path d="M71.191 18.879h2.891l2.652 9.922h-1.379l-.652-2.348H70.57l-.652 2.348h-1.379zm-.34 6.379h3.57l-1.406-5.227h-.742zm7.063-3.645h1.469v.449c.414-.223.785-.375 1.113-.461.332-.098.676-.145 1.02-.145.496 0 .902.082 1.219.242.324.156.582.379.77.68.195.297.336.66.414 1.094a8.38 8.38 0 0 1 .117 1.484v3.844h-1.48V25l-.043-.895c-.023-.25-.09-.492-.195-.719-.098-.211-.234-.375-.414-.492-.168-.113-.398-.172-.695-.172a3.65 3.65 0 0 0-.965.145l-.844.273v5.66h-1.484zm10.297 7.344c-.957 0-1.648-.297-2.074-.891-.414-.598-.625-1.523-.625-2.781 0-1.352.242-2.332.727-2.937.496-.605 1.266-.906 2.313-.906a5.7 5.7 0 0 1 .816.059l.965.129v-3.066h1.48v10.238h-1.48v-.402c-.406.199-.777.344-1.113.43-.324.086-.66.129-1.008.129zm.297-1.281c.227 0 .484-.027.77-.086a5.41 5.41 0 0 0 .785-.215l.27-.086v-4.465c-.605-.105-1.09-.16-1.453-.16-.348 0-.637.051-.875.145s-.434.25-.578.449c-.137.199-.242.465-.312.789-.062.391-.094.785-.09 1.184 0 .863.117 1.488.344 1.871s.605.574 1.141.574zm5.156-6.074h1.469v.875c.871-.527 1.73-.875 2.578-1.051v1.457c-.187.027-.391.07-.605.129l-.668.199-.684.246-.605.246v5.098h-1.484zm5.035 3.613c-.004-.508.055-1.016.176-1.512.121-.473.309-.871.566-1.195.27-.34.621-.605 1.02-.777.418-.191.922-.289 1.516-.289.563 0 1.051.086 1.465.258s.758.426 1.023.75a3.24 3.24 0 0 1 .594 1.195c.129.461.191.984.191 1.57a5.61 5.61 0 0 1-.191 1.527c-.117.461-.312.852-.578 1.18a2.59 2.59 0 0 1-1.008.762c-.414.184-.914.273-1.496.273-1.129 0-1.957-.324-2.492-.977-.523-.664-.785-1.586-.785-2.766zm1.512 0c0 .383.023.73.074 1.035.059.309.152.574.281.793.137.211.324.383.547.504.23.117.52.172.875.172.664 0 1.117-.211 1.363-.633.258-.422.387-1.051.387-1.887 0-.375-.023-.715-.074-1.023-.039-.281-.133-.555-.281-.805-.129-.219-.316-.398-.547-.52s-.52-.187-.875-.187c-.664 0-1.121.223-1.379.664-.246.434-.371 1.063-.371 1.887zm6.527-3.613h1.48v7.199h-1.48zm0-2.969h1.48v1.543h-1.48zm5.734 10.324c-.957 0-1.648-.297-2.074-.891-.414-.598-.621-1.523-.621-2.781 0-1.352.242-2.332.727-2.937.492-.605 1.262-.906 2.313-.906.27 0 .543.02.813.059l.965.129v-3.066h1.48v10.238h-1.48v-.402c-.406.199-.777.344-1.113.43-.324.086-.66.129-1.008.129zm.297-1.281c.227 0 .484-.027.77-.086a5.61 5.61 0 0 0 .789-.215l.266-.086v-4.465c-.602-.105-1.086-.16-1.453-.16-.348 0-.637.051-.875.145a1.34 1.34 0 0 0-.578.449c-.137.199-.242.465-.312.789-.062.391-.094.785-.086 1.184 0 .863.113 1.488.34 1.871s.609.574 1.141.574zM53.66 19.5c-.43 0-.844.164-1.148.461s-.473.695-.473 1.113v7.199c0 .418.168.82.473 1.113s.719.461 1.148.461.84-.164 1.145-.461.477-.695.477-1.113v-7.199c0-.418-.172-.82-.477-1.113s-.715-.461-1.145-.461zm-20.848 0a1.63 1.63 0 0 0-1.145.461c-.305.293-.477.695-.477 1.113v7.199c0 .418.172.82.477 1.113a1.63 1.63 0 0 0 1.145.461c.43 0 .844-.164 1.148-.461s.473-.695.473-1.113v-7.199c0-.418-.168-.82-.473-1.113s-.719-.461-1.148-.461zm2.781 0v10.801c0 .992.828 1.801 1.852 1.801h1.16v3.824c0 .418.168.82.473 1.113a1.64 1.64 0 0 0 1.148.461c.43 0 .84-.164 1.145-.461s.477-.695.473-1.113v-3.824h2.781v3.824c0 .418.168.82.473 1.113s.719.461 1.148.461a1.63 1.63 0 0 0 1.145-.461c.305-.293.477-.695.477-1.113v-3.824h1.156c1.023 0 1.855-.809 1.855-1.801V19.5zm15.066-2.25c-.477-1.648-1.609-3.055-3.141-3.98l-.258-.152-.266-.145.293-.508.918-1.613c.02-.027.027-.059.031-.086s0-.062-.008-.094-.023-.059-.043-.082-.047-.047-.074-.062c-.035-.02-.074-.027-.117-.027s-.086.012-.121.031-.07.055-.09.09l-.934 1.633-.293.516-.285-.113-.285-.105c-1.781-.605-3.719-.605-5.5 0l-.285.105-.285.113-.293-.516-.934-1.629c-.031-.055-.082-.094-.145-.109s-.125-.008-.184.02-.098.082-.113.141-.016.121.016.18l.914 1.609.297.508-.27.145-.258.152c-1.531.926-2.664 2.332-3.141 3.98-.129.438-.203.891-.215 1.348h15.281a5.28 5.28 0 0 0-.219-1.348zm-10.898-.898c-.137 0-.273-.043-.387-.117s-.203-.18-.254-.301-.07-.258-.043-.391a.69.69 0 0 1 .547-.535c.277-.051.559.063.715.293a.66.66 0 0 1-.086.852.72.72 0 0 1-.492.199zm6.945 0a.7.7 0 0 1-.383-.117.71.71 0 0 1-.258-.301c-.051-.121-.066-.258-.039-.391a.69.69 0 0 1 .547-.535c.277-.051.559.063.711.293a.65.65 0 0 1-.086.852.71.71 0 0 1-.492.199zm0 0" fill="rgb(69.803922%,69.803922%,69.803922%)"/></svg>