<svg id="Layer_1" data-name="Layer 1" xmlns="http://www.w3.org/2000/svg" viewBox="0 0 925.96 817.61"><defs><style>.cls-1,.cls-10{fill:#d1bcff;}.cls-2,.cls-9{fill:#24005b;}.cls-3{fill:#d1c8fc;}.cls-4{fill:#9f89ef;}.cls-5{fill:#c6b6ff;}.cls-6{fill:#9171ea;}.cls-7{fill:#a178fd;}.cls-8{fill:#6d42c6;}.cls-10,.cls-9{fill-rule:evenodd;}</style></defs><polygon class="cls-1" points="761.17 136.02 726.45 136.02 726.45 5.56 723.12 5.56 723.12 136.02 688.4 136.02 688.4 439.17 723.12 439.17 723.12 583.91 726.45 583.91 726.45 439.17 761.17 439.17 761.17 136.02"/><polygon class="cls-1" points="175.19 0 171.86 0 171.86 158.28 137.14 158.28 137.14 587.65 171.86 587.65 171.86 762.3 175.19 762.3 175.19 587.65 209.91 587.65 209.91 158.28 175.19 158.28 175.19 0"/><polygon class="cls-1" points="373.19 36.98 369.86 36.98 369.86 80.05 331.81 80.05 331.81 509.42 369.86 509.42 369.86 799.28 373.19 799.28 373.19 509.42 404.58 509.42 404.58 80.05 373.19 80.05 373.19 36.98"/><polygon class="cls-1" points="549.98 158.28 546.64 158.28 546.64 519.9 511.92 519.9 511.92 707.72 546.64 707.72 546.64 736.63 549.98 736.63 549.98 707.72 584.7 707.72 584.7 519.9 549.98 519.9 549.98 158.28"/><ellipse class="cls-2" cx="825.67" cy="341.06" rx="108.25" ry="87.51" transform="translate(193.91 972.67) rotate(-67.44)"/><ellipse class="cls-3" cx="821.03" cy="339.14" rx="108.25" ry="82.48" transform="translate(192.83 967.2) rotate(-67.44)"/><ellipse class="cls-2" cx="821.03" cy="339.14" rx="99.9" ry="76.13" transform="translate(192.83 967.2) rotate(-67.44)"/><ellipse class="cls-4" cx="821.95" cy="342.63" rx="97.03" ry="73.94" transform="translate(190.17 970.2) rotate(-67.44)"/><path class="cls-2" d="M827,375a7.34,7.34,0,0,0,3-6.32l-1.84-18.63-.88-12.35-1.93-18a7.54,7.54,0,0,1,2.91-6.27l12.11-8.61a7.57,7.57,0,0,1,7.11-1l13.7,5.21a6.8,6.8,0,0,1,4.34,5.49L867,329a7.54,7.54,0,0,1-3.06,6.51l-12.68,8.59a7.55,7.55,0,0,1-7.24.79l-8.88-3.76,1.19,12.57,9.2,4a7.67,7.67,0,0,0,7.28-.71l23.53-16.14a7.59,7.59,0,0,0,3.11-6.59l-3.21-27.76a6,6,0,0,0-4.15-5.37l-25.91-9.57a7.66,7.66,0,0,0-7.07,1.1l-22,16.43a7.5,7.5,0,0,0-2.86,6.2l1.58,17.62,1.07,12.29,1.62,18a7.4,7.4,0,0,1-2.92,6.25L804,377.59a6.68,6.68,0,0,1-6.72.55l-12.34-5.92a6.67,6.67,0,0,1-3.69-5.47l-1.16-13.39a7.35,7.35,0,0,1,2.78-6l11.08-8.16a6.69,6.69,0,0,1,6.61-.78l8,3.51-1-12.18-8.24-3.49a6.74,6.74,0,0,0-6.56.85l-20.6,15.38a7.37,7.37,0,0,0-2.74,6l1.82,25.47a6.62,6.62,0,0,0,3.62,5.46l23.29,11.49a6.76,6.76,0,0,0,6.75-.49Z"/><path class="cls-1" d="M823.15,371.23a7.42,7.42,0,0,0,3-6.33l-1.85-18.63-.88-12.34-1.93-18a7.52,7.52,0,0,1,2.91-6.27l12.11-8.62a7.59,7.59,0,0,1,7.12-1l13.69,5.22a6.74,6.74,0,0,1,4.34,5.48l1.56,14.4a7.56,7.56,0,0,1-3.07,6.51l-12.67,8.6a7.59,7.59,0,0,1-7.25.78l-8.87-3.76,1.18,12.58,9.2,4a7.67,7.67,0,0,0,7.29-.71L872.51,337a7.56,7.56,0,0,0,3.11-6.58l-3.2-27.76a6.05,6.05,0,0,0-4.15-5.38l-25.91-9.56a7.68,7.68,0,0,0-7.08,1.09l-22,16.43a7.53,7.53,0,0,0-2.87,6.21L812,329.09l1.07,12.3,1.62,18a7.35,7.35,0,0,1-2.92,6.25l-11.58,8.14a6.7,6.7,0,0,1-6.72.56l-12.34-5.93a6.7,6.7,0,0,1-3.69-5.46l-1.15-13.4a7.38,7.38,0,0,1,2.77-6l11.09-8.15a6.69,6.69,0,0,1,6.6-.79l8,3.51-1-12.17-8.23-3.5a6.78,6.78,0,0,0-6.57.85l-20.6,15.38a7.35,7.35,0,0,0-2.73,6l1.81,25.46a6.64,6.64,0,0,0,3.62,5.46L794.32,387a6.78,6.78,0,0,0,6.75-.48Z"/><ellipse class="cls-2" cx="469.07" cy="541.69" rx="83.93" ry="103.82" transform="translate(-184.92 248.85) rotate(-24.99)"/><ellipse class="cls-5" cx="464.7" cy="543.73" rx="79.11" ry="103.82" transform="translate(-186.19 247.2) rotate(-24.99)"/><ellipse class="cls-2" cx="464.7" cy="543.73" rx="73.01" ry="95.82" transform="translate(-186.19 247.2) rotate(-24.99)"/><ellipse class="cls-6" cx="467.77" cy="545.34" rx="70.92" ry="93.07" transform="translate(-186.58 248.64) rotate(-24.99)"/><path class="cls-2" d="M460.64,519.44a3.72,3.72,0,0,1-.18,2.75l-27,53.4c-.36.7-4.82.56-5.26-.4l-4-15.79a2.28,2.28,0,0,1-.15-1.77l21.85-66.47c.66-1.69,6.16,0,6.73,1.84Z"/><path class="cls-2" d="M517.57,556.14a2.87,2.87,0,0,1-.82,2.4l-43.19,44c-.57.57-4.89.46-5.2-.43l-2.29-14.7a1.58,1.58,0,0,1,.19-1.57L506.78,530c1.15-1.44,6.73.24,7,2Z"/><path class="cls-2" d="M457.68,581.81a1.78,1.78,0,0,0,1.5-.68l40.51-56.46c1.06-1.47-3.52-4-5.35-3.63l-22.27,5.77a3.12,3.12,0,0,0-2.11,1.51L436.85,581c-.39.68,4,1,5,1Z"/><path class="cls-1" d="M456.68,518.87a3.77,3.77,0,0,1-.19,2.75l-27,53.4c-.35.71-1.7.27-2.14-.69l-7.16-15.49a2.3,2.3,0,0,1-.15-1.78L445.29,492c.66-1.7,2.79-1.41,3.35.46Z"/><path class="cls-1" d="M513.6,555.57a2.82,2.82,0,0,1-.82,2.4l-43.19,44c-.57.58-2,0-2.37-.84l-5.12-14.29a1.58,1.58,0,0,1,.19-1.57l43.65-54.67c1.15-1.43,3.6-1,3.87.75Z"/><path class="cls-1" d="M453.71,581.25a1.81,1.81,0,0,0,1.5-.69l40.51-56.45a2,2,0,0,0-2.09-3l-25.53,5.17a3.12,3.12,0,0,0-2.11,1.51L436.31,579.6c-.39.68.59,1.81,1.56,1.8Z"/><ellipse class="cls-2" cx="126.85" cy="304.77" rx="131.81" ry="106.55" transform="translate(-126.66 93.33) rotate(-27.57)"/><ellipse class="cls-7" cx="129.68" cy="310.19" rx="131.81" ry="100.44" transform="translate(-128.85 95.25) rotate(-27.57)"/><ellipse class="cls-2" cx="129.68" cy="310.19" rx="121.65" ry="92.7" transform="translate(-128.85 95.25) rotate(-27.57)"/><ellipse class="cls-8" cx="131.55" cy="306.22" rx="118.15" ry="90.03" transform="translate(-126.8 95.66) rotate(-27.57)"/><path class="cls-9" d="M187.41,275.78l-44.4-26L64.58,303.49,73.39,353l44.8,20.27,72-48.26Zm-7.56,5.12,1.53,35.22-29.87-16-3.24-36.5Zm-35.68,29.48,2.56,29.05-26.52-12.84Zm-4.43-46.71,2.81,31.74L114.7,280.79Zm-.5,39.39-24.16,16.39-3.62-30.72Zm-22.7,61.6L80.16,348.44l-6.24-39.78,28.92-19.76L108,329.61l35.59,16.91Zm38.08-25.58-2.31-28.94L178,323.37Z"/><path class="cls-10" d="M192.05,280.41l-44.41-26L69.21,308.12,78,357.67l44.8,20.26,72-48.26Zm-7.56,5.12L186,320.75l-29.87-16-3.24-36.51ZM148.81,315l2.55,29.05-26.52-12.83Zm-4.43-46.71,2.8,31.74-27.85-14.62Zm-.5,39.39-24.17,16.39-3.62-30.72Zm-22.7,61.61L84.8,353.08,78.56,313.3l28.91-19.77,5.13,40.71,35.58,16.91Zm38.08-25.59-2.32-28.94L182.63,328Z"/></svg>