<svg xmlns="http://www.w3.org/2000/svg" width="147" height="48"  ><path d="M12.352.602h122.297c6.48 0 11.734 5.102 11.734 11.398v24c0 6.297-5.254 11.398-11.734 11.398H12.352C5.871 47.398.617 42.297.617 36V12C.617 5.703 5.871.602 12.352.602zm0 0" fill="none" stroke="rgb(69.803922%,69.803922%,69.803922%)" stroke-width="1.218"/><path d="M47.309 19.438c-.434-.281-1.273-.664-2.895-1.004l-1.676-.293-2.793-.305-.148-.012-.68-1.422-.375-.816-.047-.102c-.465-1.039-.969-2.109-1.816-3.055-.945-1.051-2.187-1.633-3.5-1.633s-2.555.582-3.5 1.633c-.855.945-1.348 2.012-1.816 3.051l-.047.105-.375.816-.68 1.422-.145.012-2.801.309-1.668.289c-1.617.344-2.465.723-2.898 1.004a.49.49 0 0 0-.172.195c-.039.078-.051.164-.039.246l.141.941.816 4.75c.277 1.313.664 2.602 1.16 3.852l.668 1.449c1.055 1.914 2.691 3.523 4.719 4.641s4.363 1.707 6.742 1.688 4.707-.633 6.715-1.777 3.617-2.777 4.641-4.707l.527-1.16c1.152-2.785 1.598-5.855 1.965-8.297l.203-1.391c.012-.086-.004-.168-.043-.246s-.102-.141-.18-.187zm-13.941-1.832l-3.598.063.176-.375.398-.871c.27-.633.578-1.25.934-1.844.164-.258.348-.504.551-.734.266-.289.82-.793 1.539-.793s1.273.496 1.539.793a5.57 5.57 0 0 1 .555.734 15.7 15.7 0 0 1 .934 1.844l.395.871.18.375zm25.648 6.227c.004-.594.047-1.184.137-1.77.086-.578.277-1.133.563-1.645a3.32 3.32 0 0 1 1.156-1.195c.492-.316 1.141-.473 1.941-.473.84 0 1.797.113 2.875.344l-.043 1.211-1.363-.172c-.418-.051-.797-.074-1.145-.074-.562 0-1.012.125-1.348.375s-.605.578-.785.949c-.18.387-.297.813-.355 1.281a12.26 12.26 0 0 0-.074 1.34 9.97 9.97 0 0 0 .09 1.313c.059.43.176.82.355 1.164a2.26 2.26 0 0 0 .813.852c.359.211.836.316 1.441.316l1.051-.059 1.32-.187.043 1.238-1.469.23a9.03 9.03 0 0 1-1.215.086c-.781 0-1.426-.133-1.941-.402-.5-.254-.922-.633-1.23-1.094-.297-.461-.508-1.004-.637-1.629-.117-.621-.18-1.289-.18-2zm7.785 2.879c0-.719.188-1.246.563-1.582.387-.336 1-.543 1.84-.621l2.016-.172v-.547c0-.402-.09-.691-.266-.863s-.445-.262-.801-.262l-1.437.043-1.426.117-.059-1.023c.504-.117 1.012-.211 1.527-.273.457-.055.918-.086 1.379-.086.91 0 1.563.188 1.957.563.406.363.605.961.605 1.785v3.398c.02.203.086.352.195.445s.281.164.52.203l-.062 1.121c-.441 0-.812-.043-1.109-.129a2.37 2.37 0 0 1-.801-.43c-.812.371-1.633.559-2.461.559-.723 0-1.266-.191-1.633-.574s-.547-.941-.547-1.672zm2.504 1.051c.25 0 .504-.023.773-.07a6.95 6.95 0 0 0 .844-.203l.297-.086v-2.031l-1.84.176c-.719.055-1.082.434-1.082 1.137 0 .719.336 1.078 1.008 1.078zm5.813-4.895h-.891v-1.223h.891v-.562a6.4 6.4 0 0 1 .105-1.281c.066-.348.18-.621.34-.82.168-.211.383-.359.652-.449s.594-.129.977-.129l1.57.117-.012 1.195-.652-.031h-.461l-.238-.012a.58.58 0 0 0-.621.359c-.117.258-.18.613-.18 1.066v.547h2.004v1.223h-2.004v5.934h-1.48zm4.688 2.449c0-1.297.258-2.266.773-2.91s1.324-.965 2.43-.965c1.02 0 1.789.273 2.313.82.535.547.781 1.379.742 2.492l-.09.965h-4.668c.008.355.043.656.102.906.07.25.18.457.328.621.156.152.359.266.605.344.25.066.559.102.934.102l1.023-.016 1.055-.055.441-.047.031 1.066c-1.078.211-2.02.316-2.832.316-.582 0-1.074-.074-1.48-.23a2.43 2.43 0 0 1-.992-.703c-.266-.34-.449-.727-.551-1.137a7.08 7.08 0 0 1-.164-1.57zm1.484-.637h3.289c0-.738-.121-1.262-.371-1.566-.234-.316-.637-.477-1.199-.477-.594 0-1.027.164-1.305.488-.277.316-.414.836-.414 1.555zm6.34-5.785h3.824c1.051 0 1.82.211 2.313.633.504.41.758 1.07.758 1.973 0 .555-.105 1.008-.312 1.352-.195.348-.512.629-.949.852.527.191.91.473 1.156.848s.371.875.371 1.5c0 .941-.27 1.637-.812 2.086-.547.441-1.336.664-2.375.664h-3.973zm3.84 4.289c1.078 0 1.617-.52 1.617-1.555 0-.527-.133-.91-.402-1.152s-.695-.359-1.289-.359h-2.312v3.066zm.074 4.391c.605 0 1.055-.117 1.352-.359s.441-.629.441-1.164c0-.578-.168-.996-.504-1.254-.324-.258-.773-.391-1.348-.391h-2.402v3.168zm4.43-.863c0-.719.188-1.246.563-1.582.387-.336.996-.543 1.836-.621l2.016-.172v-.547c0-.402-.086-.691-.266-.863s-.445-.262-.801-.262l-1.437.043-1.422.117-.059-1.023c.5-.117 1.012-.211 1.527-.273a11.55 11.55 0 0 1 1.375-.086c.91 0 1.563.188 1.957.563.406.363.609.961.609 1.785v3.398c.02.203.082.352.191.445s.281.164.52.203l-.059 1.121c-.445 0-.816-.043-1.113-.129a2.37 2.37 0 0 1-.801-.43 5.85 5.85 0 0 1-2.461.559c-.719 0-1.262-.191-1.629-.574s-.547-.941-.547-1.672zm2.504 1.051a4.44 4.44 0 0 0 .77-.07c.277-.047.559-.117.848-.203l.293-.086v-2.031l-1.836.176c-.723.055-1.082.434-1.082 1.137 0 .719.336 1.078 1.008 1.078zm4.848-.242l3.719-4.652h-3.719v-1.266h5.5v1.266l-3.707 4.652h3.707v1.281h-5.5zm6.383 0l3.723-4.652h-3.723v-1.266h5.5v1.266L111.5 27.52h3.707v1.281h-5.5zm6.457-.809c0-.719.191-1.246.566-1.582.383-.336.996-.543 1.836-.621l2.016-.172v-.547c0-.402-.086-.691-.266-.863s-.445-.262-.801-.262l-1.437.043-1.422.117-.059-1.023c.5-.117 1.012-.211 1.523-.273.457-.055.918-.086 1.379-.086.91 0 1.563.188 1.957.563.406.363.609.961.609 1.785v3.398c.02.203.082.352.191.445s.281.164.52.203l-.059 1.121c-.445 0-.816-.043-1.113-.129a2.37 2.37 0 0 1-.801-.43 5.85 5.85 0 0 1-2.461.559c-.719 0-1.266-.191-1.629-.574s-.551-.941-.551-1.672zm2.508 1.051a4.44 4.44 0 0 0 .77-.07 6.95 6.95 0 0 0 .844-.203l.297-.086v-2.031l-1.836.176c-.723.055-1.082.434-1.082 1.137 0 .719.336 1.078 1.008 1.078zm5.215-6.16h1.469v.875c.867-.527 1.727-.875 2.578-1.051v1.457a5.36 5.36 0 0 0-.609.129l-.664.199-.684.246-.609.246v5.098h-1.48zm0 0" fill="rgb(69.803922%,69.803922%,69.803922%)"/></svg>