<svg xmlns="http://www.w3.org/2000/svg" width="147" height="48"  ><path d="M12.352.602h122.297c6.48 0 11.734 5.102 11.734 11.398v24c0 6.297-5.254 11.398-11.734 11.398H12.352C5.871 47.398.617 42.297.617 36V12C.617 5.703 5.871.602 12.352.602zm0 0" fill="none" stroke="rgb(69.803922%,69.803922%,69.803922%)" stroke-width="1.218"/><path d="M72.754 18.906h1.527v9.895h-1.527zm3.605 0h3.75c1.168 0 2.023.273 2.566.82.551.547.828 1.375.828 2.477 0 1.133-.281 1.992-.844 2.578-.562.578-1.414.863-2.551.863h-2.223v3.156h-1.527zm3.734 5.445c1.258 0 1.883-.723 1.883-2.16 0-.691-.148-1.195-.445-1.512s-.773-.477-1.437-.477h-2.207v4.148zm4.965-5.789h1.484v3.41c.352-.164.719-.301 1.098-.402a4.38 4.38 0 0 1 1.066-.129c.484 0 .883.078 1.199.23a1.73 1.73 0 0 1 .773.664c.188.297.32.66.398 1.094a8.55 8.55 0 0 1 .117 1.512v3.844h-1.48v-3.801l-.043-.922c-.023-.25-.09-.492-.195-.719a.95.95 0 0 0-.414-.461c-.18-.117-.414-.176-.711-.176-.141 0-.293.016-.461.047-.156.016-.32.047-.488.086-.16.027-.312.066-.461.113l-.398.117v5.715h-1.484zm7.316 6.652a6.18 6.18 0 0 1 .18-1.512c.117-.473.305-.871.563-1.195a2.61 2.61 0 0 1 1.023-.777c.414-.191.918-.289 1.512-.289.563 0 1.051.086 1.469.258s.754.426 1.023.75.461.727.59 1.195c.129.461.195.984.195 1.57a5.77 5.77 0 0 1-.195 1.527 2.98 2.98 0 0 1-.578 1.18c-.262.332-.609.594-1.008.762-.414.184-.914.273-1.496.273-1.125 0-1.957-.324-2.488-.977-.527-.664-.789-1.586-.789-2.766zm1.512 0a6.85 6.85 0 0 0 .074 1.035c.063.309.156.574.285.793.137.211.324.383.547.504s.52.172.875.172c.66 0 1.117-.211 1.363-.633.258-.422.387-1.051.387-1.887 0-.375-.027-.715-.074-1.023-.039-.281-.137-.555-.281-.805-.129-.219-.32-.398-.551-.52s-.52-.187-.875-.187c-.66 0-1.121.223-1.379.664-.246.434-.371 1.063-.371 1.887zm6.543-3.602h1.469v.449c.414-.223.785-.375 1.109-.461a3.62 3.62 0 0 1 1.023-.145c.496 0 .898.082 1.215.242.328.156.586.379.773.68.195.297.336.66.414 1.094a8.38 8.38 0 0 1 .117 1.484v3.844h-1.48V25l-.047-.895c-.02-.25-.086-.492-.191-.719a1.17 1.17 0 0 0-.414-.492c-.168-.113-.402-.172-.699-.172-.324.004-.648.055-.961.145l-.848.273v5.66h-1.48zm7.598 3.703c0-1.297.258-2.266.77-2.91s1.324-.965 2.434-.965c1.016 0 1.789.273 2.313.82.531.547.781 1.379.742 2.492l-.09.965h-4.672c.012.355.047.656.105.906.07.25.176.457.324.621.16.152.363.266.609.344.246.066.559.102.934.102l1.023-.016 1.051-.055.445-.047.031 1.066c-1.078.211-2.023.316-2.832.316-.582 0-1.078-.074-1.484-.23s-.734-.398-.992-.703c-.262-.34-.449-.727-.547-1.137a6.64 6.64 0 0 1-.164-1.57zm1.484-.637h3.289c0-.738-.125-1.262-.371-1.566-.238-.316-.637-.477-1.199-.477-.594 0-1.027.164-1.305.488-.277.316-.414.836-.414 1.555zm-53.437-.492c-.016-2.262 1.184-3.969 3.613-5.227-1.359-1.656-3.41-2.57-6.117-2.746-2.562-.172-5.367 1.273-6.391 1.273-1.086 0-3.566-1.215-5.52-1.215-4.027.051-8.309 2.738-8.309 8.207 0 1.613.348 3.285 1.039 5.004.926 2.262 4.262 7.805 7.742 7.715 1.816-.035 3.105-1.102 5.473-1.102 2.297 0 3.488 1.102 5.516 1.102 3.512-.043 6.527-5.082 7.41-7.352-4.711-1.895-4.457-5.547-4.457-5.664zM51.988 14.07c1.969-2 1.793-3.816 1.734-4.469-1.742.086-3.758 1.012-4.902 2.148-1.266 1.223-2.008 2.73-1.848 4.434 1.879.121 3.598-.703 5.016-2.113zm0 0" fill="rgb(69.803922%,69.803922%,69.803922%)"/></svg>