<svg xmlns="http://www.w3.org/2000/svg" width="147" height="48"  ><path d="M12.352.602h122.297c6.48 0 11.734 5.102 11.734 11.398v24c0 6.297-5.254 11.398-11.734 11.398H12.352C5.871 47.398.617 42.297.617 36V12C.617 5.703 5.871.602 12.352.602zm0 0" fill="none" stroke="rgb(69.803922%,69.803922%,69.803922%)" stroke-width="1.218"/><path d="M48.176 38.398C56.363 38.398 63 31.953 63 24S56.363 9.602 48.176 9.602 33.352 16.047 33.352 24s6.637 14.398 14.824 14.398zm0 0" fill="rgb(69.803922%,69.803922%,69.803922%)"/><path d="M57.27 22.297c-.125-2.727-2.43-4.895-5.266-4.895-1.574 0-2.988.676-3.957 1.734-.965-1.059-2.383-1.734-3.953-1.734-2.777 0-5.055 2.078-5.258 4.742-.008.059-.008.129-.008.199v5.777c0 .711.586 1.281 1.32 1.281h.031c.727 0 1.316-.574 1.316-1.281v-5.594h.012c0-1.406 1.176-2.547 2.621-2.547s2.621 1.145 2.621 2.547h.008v4.719c0 .711.59 1.281 1.32 1.281h.031c.73 0 1.32-.57 1.32-1.281v-4.73c.008-1.406 1.18-2.531 2.621-2.531 1.449.004 2.625 1.145 2.633 2.551h.012v5.602c0 .703.586 1.266 1.301 1.266h.031c.723 0 1.301-.574 1.301-1.266v-5.711c-.062-.066-.062-.098-.062-.133zm-4.984 7.605c-.059-.094-.25.094-.25.094-.73.773-2.246 1.266-3.816 1.266s-3.078-.492-3.82-1.266c0 0-.195-.195-.25-.094-.078.113.039.293.039.293.934 1.313 2.359 1.902 4.031 1.902s3.094-.59 4.027-1.902c.012-.004.117-.18.043-.293zm0 0" fill="rgb(10.196078%,10.196078%,10.196078%)"/><path d="M84.48 18.906v9.895h-1.527V20.52h-.207l-2.562 7.891h-1.59l-2.578-7.891h-.191v8.281h-1.527v-9.895h2.668l2.43 7.848 2.418-7.848zm2.879 2.695l1.645 5.961h.43l1.645-5.961h1.469l-2.891 10.324h-1.453l.891-3.125h-1.215l-1.988-7.199zm6.523-3.039h1.48v5.945l.992-.086 1.855-2.82h1.66l-2.227 3.355 2.328 3.844h-1.676l-1.91-3.125-1.023.086v3.039h-1.48zm7.129 6.754c0-1.297.258-2.266.773-2.91s1.324-.965 2.43-.965c1.016 0 1.789.273 2.313.82.531.547.781 1.379.742 2.492l-.09.965h-4.672c.012.355.047.656.105.906.07.25.18.457.328.621.156.152.359.266.605.344.246.066.559.102.934.102l1.023-.016 1.051-.055.445-.047.031 1.066c-1.078.211-2.02.316-2.832.316-.582 0-1.078-.074-1.48-.23a2.47 2.47 0 0 1-.996-.703c-.262-.34-.449-.727-.547-1.137a6.64 6.64 0 0 1-.164-1.57zm1.484-.637h3.289c0-.738-.121-1.262-.371-1.566-.234-.316-.637-.477-1.199-.477-.594 0-1.027.164-1.305.488-.277.316-.414.836-.414 1.555zm8.758 4.293c-.395 0-.73-.043-1.008-.129-.27-.086-.484-.23-.652-.434-.16-.211-.273-.488-.344-.836s-.102-.77-.102-1.281v-3.469h-.98v-1.223h.98v-2.117h1.48v2.117h2.121v1.223h-2.121v3.34l.016.648a1.63 1.63 0 0 0 .121.488c.051.121.141.219.25.289.117.066.281.102.488.102l1.246-.07.074 1.148-.918.16-.652.043zm0 0" fill="rgb(69.803922%,69.803922%,69.803922%)"/></svg>